<svg width="189" height="33" viewBox="0 0 189 33" fill="none" xmlns="http://www.w3.org/2000/svg">
<path d="M4.183 11.273C4.99967 9.54167 6.20833 8.235 7.809 7.353C9.44233 6.471 11.4513 6.03 13.836 6.03V9.411L13.003 9.362C10.2917 9.362 8.16833 10.195 6.633 11.861C5.09767 13.527 4.33 15.8627 4.33 18.868V32H0.851V6.226H4.183V11.273ZM49.6879 20.191H28.1279C28.3239 22.8697 29.3529 25.042 31.2149 26.708C33.0769 28.3413 35.4289 29.158 38.2709 29.158C39.8716 29.158 41.3416 28.8803 42.6809 28.325C44.0203 27.737 45.1799 26.8877 46.1599 25.777L48.1199 28.031C46.9766 29.403 45.5393 30.4483 43.8079 31.167C42.1093 31.8857 40.2309 32.245 38.1729 32.245C35.5269 32.245 33.1749 31.6897 31.1169 30.579C29.0916 29.4357 27.5073 27.8677 26.3639 25.875C25.2206 23.8823 24.6489 21.6283 24.6489 19.113C24.6489 16.5977 25.1879 14.3437 26.2659 12.351C27.3766 10.3583 28.8793 8.80667 30.7739 7.696C32.7013 6.58533 34.8573 6.03 37.2419 6.03C39.6266 6.03 41.7663 6.58533 43.6609 7.696C45.5556 8.80667 47.0419 10.3583 48.1199 12.351C49.1979 14.311 49.7369 16.565 49.7369 19.113L49.6879 20.191ZM37.2419 9.019C34.7593 9.019 32.6686 9.81933 30.9699 11.42C29.3039 12.988 28.3566 15.046 28.1279 17.594H46.4049C46.1763 15.046 45.2126 12.988 43.5139 11.42C41.8479 9.81933 39.7573 9.019 37.2419 9.019ZM77.3002 6.03C80.5342 6.03 83.0985 6.97733 84.9932 8.872C86.9205 10.734 87.8842 13.4617 87.8842 17.055V32H84.4052V17.398C84.4052 14.7193 83.7355 12.6777 82.3962 11.273C81.0569 9.86833 79.1459 9.166 76.6632 9.166C73.8865 9.166 71.6815 9.999 70.0482 11.665C68.4475 13.2983 67.6472 15.5687 67.6472 18.476V32H64.1682V6.226H67.5002V10.979C68.4475 9.411 69.7542 8.20233 71.4202 7.353C73.1189 6.471 75.0789 6.03 77.3002 6.03ZM118.252 30.432C117.599 31.02 116.782 31.4773 115.802 31.804C114.855 32.098 113.859 32.245 112.813 32.245C110.396 32.245 108.534 31.5917 107.227 30.285C105.921 28.9783 105.267 27.1327 105.267 24.748V9.166H100.661V6.226H105.267V0.590998H108.746V6.226H116.586V9.166H108.746V24.552C108.746 26.0873 109.122 27.2633 109.873 28.08C110.657 28.864 111.768 29.256 113.205 29.256C113.924 29.256 114.61 29.1417 115.263 28.913C115.949 28.6843 116.537 28.3577 117.027 27.933L118.252 30.432ZM153.468 20.191H131.908C132.104 22.8697 133.133 25.042 134.995 26.708C136.857 28.3413 139.209 29.158 142.051 29.158C143.652 29.158 145.122 28.8803 146.461 28.325C147.801 27.737 148.96 26.8877 149.94 25.777L151.9 28.031C150.757 29.403 149.32 30.4483 147.588 31.167C145.89 31.8857 144.011 32.245 141.953 32.245C139.307 32.245 136.955 31.6897 134.897 30.579C132.872 29.4357 131.288 27.8677 130.144 25.875C129.001 23.8823 128.429 21.6283 128.429 19.113C128.429 16.5977 128.968 14.3437 130.046 12.351C131.157 10.3583 132.66 8.80667 134.554 7.696C136.482 6.58533 138.638 6.03 141.022 6.03C143.407 6.03 145.547 6.58533 147.441 7.696C149.336 8.80667 150.822 10.3583 151.9 12.351C152.978 14.311 153.517 16.565 153.517 19.113L153.468 20.191ZM141.022 9.019C138.54 9.019 136.449 9.81933 134.75 11.42C133.084 12.988 132.137 15.046 131.908 17.594H150.185C149.957 15.046 148.993 12.988 147.294 11.42C145.628 9.81933 143.538 9.019 141.022 9.019Z" fill="#404040"/>
<path d="M184.364 32L176.181 21.22L167.949 32H164.029L174.221 18.77L164.519 6.226H168.439L176.181 16.32L183.923 6.226H187.745L178.043 18.77L188.333 32H184.364Z" fill="#FF1010"/>
</svg>
